<svg xmlns="http://www.w3.org/2000/svg" xmlns:xlink="http://www.w3.org/1999/xlink" width="120" zoomAndPan="magnify" viewBox="0 0 90 89.999999" height="120" preserveAspectRatio="xMidYMid meet" version="1.0"><defs><clipPath id="0cc6247786"><path d="M 3.304688 3.546875 L 52 3.546875 L 52 69 L 3.304688 69 Z M 3.304688 3.546875 " clip-rule="nonzero"/></clipPath><clipPath id="cf5de5dbd9"><path d="M 47 4 L 86.554688 4 L 86.554688 68 L 47 68 Z M 47 4 " clip-rule="nonzero"/></clipPath></defs><g clip-path="url(#0cc6247786)"><path fill="#37bfd5" d="M 51.453125 33.628906 C 50.1875 27.414062 45.410156 10.851562 38.214844 3.546875 C 9.632812 34.65625 3.304688 68.546875 3.304688 68.546875 C 3.304688 68.546875 20.996094 42.414062 51.453125 33.628906 Z M 51.453125 33.628906 " fill-opacity="1" fill-rule="nonzero"/></g><path fill="#e49c76" d="M 7.492188 77.253906 C 48.726562 86.449219 81.238281 74.988281 81.238281 74.988281 C 81.238281 74.988281 49.761719 72.734375 26.925781 50.75 C 22.175781 54.949219 10.222656 67.371094 7.492188 77.253906 Z M 7.492188 77.253906 " fill-opacity="1" fill-rule="nonzero"/><g clip-path="url(#cf5de5dbd9)"><path fill="#167c99" d="M 54.015625 63.429688 C 60.027344 65.441406 76.761719 69.585938 86.683594 67.007812 C 74.035156 26.703125 47.851562 4.273438 47.851562 4.273438 C 47.851562 4.273438 61.636719 32.664062 54.015625 63.429688 Z M 54.015625 63.429688 " fill-opacity="1" fill-rule="nonzero"/></g></svg>